<?xml version="1.0" standalone="no"?>
<!DOCTYPE svg PUBLIC "-//W3C//DTD SVG 20010904//EN"
 "http://www.w3.org/TR/2001/REC-SVG-20010904/DTD/svg10.dtd">
<svg version="1.0" xmlns="http://www.w3.org/2000/svg"
 width="200.000000pt" height="200.000000pt" viewBox="0 0 200.000000 200.000000"
 preserveAspectRatio="xMidYMid meet">
<metadata>
Created by potrace 1.11, written by Peter Selinger 2001-2013
</metadata>
<g transform="translate(0.000000,200.000000) scale(0.100000,-0.100000)"
fill="#000000" stroke="none">
<path d="M533 1497 c-221 -221 -407 -415 -412 -430 -17 -43 -13 -104 8 -145
11 -20 197 -214 413 -430 l394 -393 72 72 c40 39 72 75 72 79 0 4 -164 172
-365 373 -284 285 -363 370 -358 384 3 10 166 179 362 376 196 196 357 361
358 365 4 10 -4 19 -78 89 l-64 63 -402 -403z"/>
<path d="M1361 1466 l-74 -75 181 -181 c130 -130 179 -186 175 -198 -3 -10
-85 -97 -181 -194 l-176 -177 74 -71 c41 -38 78 -70 82 -70 11 0 410 404 429
435 26 42 25 120 -2 165 -18 29 -420 440 -431 440 -2 0 -37 -33 -77 -74z"/>
</g>
</svg>
